<svg width="400" height="320" viewBox="0 0 400 320" fill="none" xmlns="http://www.w3.org/2000/svg">
  <defs>
    <linearGradient id="gradDrink" x1="0" y1="0" x2="1" y2="1">
      <stop offset="0%" stop-color="#bbf7d0" />
      <stop offset="50%" stop-color="#fca5a5" />
      <stop offset="100%" stop-color="#c084fc" />
    </linearGradient>
  </defs>
  <rect width="400" height="320" rx="28" fill="url(#gradDrink)"/>
  <g transform="translate(110,60)" stroke="#1f2937" stroke-width="5" stroke-linejoin="round">
    <path d="M30 0h140l-12 72c-10 62-22 88-58 100-36-12-48-38-58-100L30 0z" fill="#fff"/>
    <path d="M62 32h76l-8 48c-6 38-16 54-30 60-14-6-24-22-30-60l-8-48z" fill="#f472b6"/>
    <path d="M20 0h160" stroke="#1f2937" stroke-width="8" stroke-linecap="round"/>
    <path d="M80 190h40l12 40H68l12-40z" fill="#f97316"/>
  </g>
</svg>
